<?xml version="1.0" encoding="utf-8"?>
<!-- Generator: Adobe Illustrator 26.0.0, SVG Export Plug-In . SVG Version: 6.00 Build 0)  -->
<svg version="1.1" id="Capa_1" xmlns="http://www.w3.org/2000/svg" xmlns:xlink="http://www.w3.org/1999/xlink" x="0px" y="0px"
	 viewBox="0 0 536.5 531.4" style="enable-background:new 0 0 536.5 531.4;" xml:space="preserve">
<style type="text/css">
	.st0{fill:#EFEADA;}
</style>
<path class="st0" d="M14.9,269.3c0-0.1,0-0.2,0-0.3c0.5-0.2,1-0.4,1.5-0.5c13.6-2.6,27.3-5.1,40.9-8c24.3-5,48.3-11.2,71.8-19.4
	c11-3.9,21.8-8.1,32.2-13.5c16-8.4,30.3-19,42.5-32.5c11-12.1,19.7-25.8,26.6-40.7c7.4-16,13.1-32.6,18-49.5
	c6.9-23.9,11.8-48.1,16.5-72.5c1-5.5,2.1-10.9,3.1-16.4c0.2,0,0.4,0,0.5,0c1,5.3,1.9,10.7,2.9,16c5,26.6,10.9,52.9,18.4,78.9
	c5.5,18.9,12.4,37.2,21.6,54.5c10,18.7,23.3,34.4,40.1,47.1c12,9.1,25.1,16.3,39,22.2c15.3,6.6,31.2,11.5,47.4,15.7
	c26,6.8,52.3,12.6,78.8,17.4c1.2,0.2,2.4,0.6,3.7,0.9c0,0.2,0,0.4,0,0.5c-0.3,0-0.7,0.1-1,0.1c-12.5,2.4-25,4.7-37.4,7.3
	c-16.6,3.5-33.2,7.2-49.6,11.8c-21.2,5.9-41.8,13.4-61.2,23.9c-14.1,7.6-26.8,17.2-37.6,29c-12.1,13.2-21.3,28.2-28.8,44.4
	c-6.1,13.3-10.9,27.1-14.9,41.2c-6.1,21.6-11.3,43.4-15.8,65.4c-1.9,9.6-3.7,19.2-5.5,28.8c-0.3,0-0.5,0-0.8,0c0-0.4,0-0.9-0.1-1.3
	c-3.5-17.4-6.9-34.8-10.7-52.1c-4.2-19.4-9-38.6-15.5-57.3c-5-14.5-11-28.5-18.7-41.8c-7.6-13.1-16.7-25-27.8-35.3
	c-10.1-9.4-21.4-16.8-33.6-23.1c-14.8-7.7-30.3-13.6-46.2-18.4c-25.2-7.6-50.8-13.2-76.5-18.4C30.5,272.2,22.7,270.8,14.9,269.3z"/>
</svg>
