<svg id="Capa_1" data-name="Capa 1" xmlns="http://www.w3.org/2000/svg" viewBox="0 0 212.39 338"><defs><style>.cls-1{fill:#1d1d1b;}</style></defs><circle class="cls-1" cx="106.77" cy="49.1" r="30.83"/><path class="cls-1" d="M41.12,81.22S46.83,61.81,74.24,39c0,0-3.43,25.12,1.14,33.12C75.38,72.09,61.68,69.8,41.12,81.22Z" transform="translate(-16 -7)"/><path class="cls-1" d="M204.41,81.22S198.7,61.81,171.3,39c0,0,3.42,25.12-1.14,33.12C170.16,72.09,183.86,69.8,204.41,81.22Z" transform="translate(-16 -7)"/><path class="cls-1" d="M56,94.78h0a35.4,35.4,0,0,1,35.4,35.4v193a0,0,0,0,1,0,0H20.55a0,0,0,0,1,0,0v-193A35.4,35.4,0,0,1,56,94.78Z"/><path class="cls-1" d="M156.44,91.35h0a35.4,35.4,0,0,1,35.4,35.4v193a0,0,0,0,1,0,0H121a0,0,0,0,1,0,0v-193A35.4,35.4,0,0,1,156.44,91.35Z"/><path class="cls-1" d="M122.2,7h0A106.2,106.2,0,0,0,16,113.2V345H228.39V113.2A106.19,106.19,0,0,0,122.2,7ZM222.68,340.43h-201V111.25a98.54,98.54,0,0,1,98.54-98.54h3.89a98.54,98.54,0,0,1,98.54,98.54Z" transform="translate(-16 -7)"/></svg>