<svg id="Capa_1" data-name="Capa 1" xmlns="http://www.w3.org/2000/svg" viewBox="0 0 2828.43 3000"><defs><style>.cls-1{fill:#efeada;}</style></defs><path class="cls-1" d="M1412.89,2949.77c-29.88-154.35-85.49-652.35-120.45-1078.61l-9-109.87-93.3,74c-51.31,40.7-139.92,109.53-196.89,152.94C873.33,2079.59,548.11,2336,420.59,2439.68c-48.13,39.13-80.29,61.73-71.49,50.23,178.22-232.94,346.7-436,575.79-694,112.36-126.54,199.55-234.29,193.74-239.44s-203.73-26.85-439.83-48.2C234.69,1468.13-7.6,1441.51.18,1433.73c4.73-4.73,475.34-50.34,792.16-76.78,102.62-8.56,216.6-19.32,253.3-23.89l66.72-8.33-232.81-289c-128-158.93-280.09-355.35-337.88-436.5S431.06,448.32,424.31,444.15,412,430.41,412,422.89s50.05,27.89,111.22,78.7c210.45,174.76,467,389,616.94,515.21,82.65,69.56,152.47,124.27,155.16,121.58s15.2-121,27.79-262.81c26.83-302.09,89.55-895.84,92.44-875C1467.69,375.32,1517.1,890.1,1517.1,1058.4c0,45.69,4.93,83.08,11,83.08s52.85-37.52,104-83.38,212.56-182.54,358.58-303.75,302.64-252,348-290.74,82.52-66.5,82.52-61.77c0,10-241,320.22-452,581.77-79.57,98.67-171.66,216-204.64,260.64l-60,81.24,67.68,8c37.22,4.41,151.63,15.09,254.24,23.73s306,28.23,452.08,43.52,288.1,28.51,315.73,29.38c47.87,1.5,47.2,2.14-14.35,13.5-35.52,6.55-287.39,32-559.71,56.49s-506.39,47.91-520.15,52c-19.91,5.91,8.14,46.11,137.2,196.65,274.25,319.88,575.56,688.82,605.79,741.75,15.61,27.33,53.61,57.84-476-382.16l-434.09-360.62-8.16,73.6c-4.48,40.47-17.81,206-29.62,367.8s-31,387.85-42.67,502.3-23.19,230.7-25.61,258.33l-4.4,50.23Z" transform="translate(0 0)"/></svg>